<svg width="2428" height="119" viewBox="0 0 2428 119" fill="none" xmlns="http://www.w3.org/2000/svg">
<path d="M0 119V0.165046H21.785V48.5243H99.6827V0.165046H121.468V119H99.6827V70.6408H21.785V119H0Z" fill="white"/>
<path d="M162.824 119C158.643 119 154.792 117.955 151.271 115.864C147.86 113.773 145.11 111.023 143.019 107.612C140.929 104.091 139.884 100.239 139.884 96.0583V23.1068C139.884 18.9256 140.929 15.1294 143.019 11.7184C145.11 8.19741 147.86 5.39158 151.271 3.30097C154.792 1.21035 158.643 0.165046 162.824 0.165046H235.77C239.951 0.165046 243.747 1.21035 247.158 3.30097C250.679 5.39158 253.484 8.19741 255.575 11.7184C257.665 15.1294 258.711 18.9256 258.711 23.1068V96.0583C258.711 100.239 257.665 104.091 255.575 107.612C253.484 111.023 250.679 113.773 247.158 115.864C243.747 117.955 239.951 119 235.77 119H162.824ZM163.649 97.0485H170H234.615C235.165 97.0485 235.66 96.8835 236.1 96.5534C236.541 96.1133 236.761 95.6181 236.761 95.068V29.5V24.0971C236.761 23.5469 236.541 23.1068 236.1 22.7767C235.66 22.3366 235.165 22.1165 234.615 22.1165H226.5H163.649C163.099 22.1165 162.604 22.3366 162.164 22.7767C161.834 23.1068 161.668 23.5469 161.668 24.0971V88V95.068C161.668 95.6181 161.834 96.1133 162.164 96.5534C162.604 96.8835 163.099 97.0485 163.649 97.0485Z" fill="white"/>
<path d="M277.05 119V0H298.835V97.0485H395.877V119H277.05Z" fill="white"/>
<path d="M428.109 119C423.928 119 420.077 117.955 416.556 115.864C413.145 113.773 410.395 111.023 408.304 107.612C406.214 104.091 405.169 100.239 405.169 96.0583V23.1068C405.169 18.9256 406.214 15.1294 408.304 11.7184C410.395 8.19741 413.145 5.39158 416.556 3.30097C420.077 1.21035 423.928 0.165046 428.109 0.165046H501.055C505.236 0.165046 509.032 1.21035 512.443 3.30097C515.964 5.39158 518.769 8.19741 520.86 11.7184C522.95 15.1294 523.996 18.9256 523.996 23.1068V96.0583C523.996 100.239 522.95 104.091 520.86 107.612C518.769 111.023 515.964 113.773 512.443 115.864C509.032 117.955 505.236 119 501.055 119H428.109ZM428.934 97.0485H499.9C500.45 97.0485 500.945 96.8835 501.385 96.5534C501.826 96.1133 502.046 95.6181 502.046 95.068V24.0971C502.046 23.5469 501.826 23.1068 501.385 22.7767C500.945 22.3366 500.45 22.1165 499.9 22.1165H428.934C428.384 22.1165 427.889 22.3366 427.449 22.7767C427.118 23.1068 426.953 23.5469 426.953 24.0971V95.068C426.953 95.6181 427.118 96.1133 427.449 96.5534C427.889 96.8835 428.384 97.0485 428.934 97.0485Z" fill="white"/>
<path d="M565.111 119C560.93 119 557.079 117.955 553.558 115.864C550.147 113.773 547.396 111.023 545.306 107.612C543.216 104.091 542.17 100.239 542.17 96.0583V23.1068C542.17 18.9256 543.216 15.1294 545.306 11.7184C547.396 8.19741 550.147 5.39158 553.558 3.30097C557.079 1.21035 560.93 0.165046 565.111 0.165046H637.892C642.073 0.165046 645.924 1.21035 649.445 3.30097C652.966 5.39158 655.771 8.19741 657.862 11.7184C659.952 15.1294 660.997 18.9256 660.997 23.1068V32.3495H639.047V24.0971C639.047 23.5469 638.827 23.1068 638.387 22.7767C637.947 22.3366 637.452 22.1165 636.902 22.1165H565.936C565.386 22.1165 564.891 22.3366 564.45 22.7767C564.12 23.1068 563.955 23.5469 563.955 24.0971V95.068C563.955 95.6181 564.12 96.1133 564.45 96.5534C564.891 96.8835 565.386 97.0485 565.936 97.0485H636.902C637.452 97.0485 637.947 96.8835 638.387 96.5534C638.827 96.1133 639.047 95.6181 639.047 95.068V73.6116H612.146V51.6602H660.997V96.0583C660.997 100.239 659.952 104.091 657.862 107.612C655.771 111.023 652.966 113.773 649.445 115.864C645.924 117.955 642.073 119 637.892 119H565.111Z" fill="white"/>
<path d="M773.896 119L739.808 78.3113L738.083 76.2524H766.634L768.324 78.2477L797.661 112.893V119H773.896Z" fill="white"/>
<path d="M1048.05 119L1013.96 78.3113L1012.23 76.2524H1040.78L1042.47 78.2477L1071.81 112.893V119H1048.05Z" fill="white"/>
<path d="M1132.08 119V22.1165H1083.56V0.165046H1202.39V22.1165H1154.03V119H1132.08Z" fill="white"/>
<path d="M1587.22 119V22.1165H1538.7V0.165046H1657.53V22.1165H1609.17V119H1587.22Z" fill="white"/>
<path d="M1818.32 119L1749.5 0.165046H1774.92L1828.06 92.5922L1881.37 0.165046H1906.62L1837.8 119H1818.32Z" fill="white"/>
<path d="M2139.58 119L2105.49 78.3113L2103.76 76.2524H2132.31L2134 78.2477L2163.34 112.893V119H2139.58Z" fill="white"/>
<path d="M2203.48 119C2199.3 119 2195.45 117.955 2191.92 115.864C2188.51 113.773 2185.76 111.023 2183.67 107.612C2181.58 104.091 2180.54 100.239 2180.54 96.0583V86.9806H2202.32V95.068C2202.32 95.6181 2202.49 96.1133 2202.82 96.5534C2203.26 96.8835 2203.75 97.0485 2204.3 97.0485H2275.43C2275.98 97.0485 2276.42 96.8835 2276.75 96.5534C2277.19 96.1133 2277.41 95.6181 2277.41 95.068V72.4563C2277.41 71.9061 2277.19 71.466 2276.75 71.1359C2276.42 70.8058 2275.98 70.6408 2275.43 70.6408H2203.48C2199.3 70.6408 2195.45 69.5955 2191.92 67.5049C2188.51 65.4142 2185.76 62.6634 2183.67 59.2524C2181.58 55.7314 2180.54 51.8252 2180.54 47.534V23.1068C2180.54 18.9256 2181.58 15.1294 2183.67 11.7184C2185.76 8.19741 2188.51 5.39158 2191.92 3.30097C2195.45 1.21035 2199.3 0.165046 2203.48 0.165046H2276.42C2280.6 0.165046 2284.4 1.21035 2287.81 3.30097C2291.33 5.39158 2294.14 8.19741 2296.23 11.7184C2298.32 15.1294 2299.36 18.9256 2299.36 23.1068V32.1845H2277.41V24.0971C2277.41 23.5469 2277.19 23.1068 2276.75 22.7767C2276.42 22.3366 2275.98 22.1165 2275.43 22.1165H2204.3C2203.75 22.1165 2203.26 22.3366 2202.82 22.7767C2202.49 23.1068 2202.32 23.5469 2202.32 24.0971V46.7087C2202.32 47.2589 2202.49 47.699 2202.82 48.0291C2203.26 48.3592 2203.75 48.5243 2204.3 48.5243H2276.42C2280.6 48.5243 2284.4 49.5696 2287.81 51.6602C2291.33 53.7508 2294.14 56.5566 2296.23 60.0777C2298.32 63.4887 2299.36 67.3398 2299.36 71.6311V96.0583C2299.36 100.239 2298.32 104.091 2296.23 107.612C2294.14 111.023 2291.33 113.773 2287.81 115.864C2284.4 117.955 2280.6 119 2276.42 119H2203.48Z" fill="white"/>
<path d="M739.808 78.3113L738.083 76.2524H766.634L768.324 78.2477L774.886 78.233C779.067 78.233 782.918 77.2427 786.439 75.2621C789.96 73.1715 792.765 70.3657 794.856 66.8447C796.946 63.3236 797.991 59.4725 797.991 55.2913V23.2718C797.991 19.0906 796.946 15.2945 794.856 11.8835C792.765 8.36245 789.96 5.55663 786.439 3.46601C782.918 1.3754 779.067 0.330093 774.886 0.330093H679.164V22.1165H702.93H773.896C774.446 22.1165 774.941 22.3366 775.381 22.7767C775.821 23.1068 776.041 23.5469 776.041 24.0971V54.466C776.041 55.0162 775.821 55.4563 775.381 55.7864C774.941 56.1165 774.446 56.2815 773.896 56.2815H702.93C702.38 56.2815 679.605 56.6116 679.164 56.2815V119H700.949V78.3981L739.808 78.3113Z" fill="white"/>
<path d="M1013.96 78.3113L1012.23 76.2524H1040.78L1042.47 78.2477L1049.04 78.233C1053.22 78.233 1057.07 77.2427 1060.59 75.2621C1064.11 73.1715 1066.91 70.3657 1069.01 66.8447C1071.1 63.3236 1072.14 59.4725 1072.14 55.2913V23.2718C1072.14 19.0906 1071.1 15.2945 1069.01 11.8835C1066.91 8.36245 1064.11 5.55663 1060.59 3.46601C1057.07 1.3754 1053.22 0.330093 1049.04 0.330093H953.314V22.1165H977.079H1048.05C1048.6 22.1165 1049.09 22.3366 1049.53 22.7767C1049.97 23.1068 1050.19 23.5469 1050.19 24.0971V54.466C1050.19 55.0162 1049.97 55.4563 1049.53 55.7864C1049.09 56.1165 1048.6 56.2815 1048.05 56.2815H977.079H953.314V119H975.099V78.3981L1013.96 78.3113Z" fill="white"/>
<path d="M1418.62 0.165046H1528.04V22.1165H1418.62V0.165046Z" fill="white"/>
<path d="M1418.62 48.5243H1510.87V70.6408H1440.57V97.0485H1528.04V119H1418.62V48.5243Z" fill="white"/>
<path d="M1918.82 0.165046H2028.24V22.1165H1918.82V0.165046Z" fill="white"/>
<path d="M1918.82 48.5243H2011.07V70.6408H1940.77V97.0485H2028.24V119H1918.82V48.5243Z" fill="white"/>
<path d="M2105.49 78.3113L2103.76 76.2524H2132.31L2134 78.2477L2140.57 78.233C2144.75 78.233 2148.6 77.2427 2152.12 75.2621C2155.64 73.1715 2158.44 70.3657 2160.54 66.8447C2162.63 63.3236 2163.67 59.4725 2163.67 55.2913V23.2718C2163.67 19.0906 2162.63 15.2945 2160.54 11.8835C2158.44 8.36245 2155.64 5.55663 2152.12 3.46601C2148.6 1.3754 2144.75 0.330093 2140.57 0.330093H2044.84V22.1165C2045.1 22.1927 2062.69 22.1355 2067.45 22.1201L2068.61 22.1165H2139.58C2140.13 22.1165 2140.62 22.3366 2141.06 22.7767C2141.5 23.1068 2141.72 23.5469 2141.72 24.0971V54.466C2141.72 55.0162 2141.5 55.4563 2141.06 55.7864C2140.62 56.1165 2140.13 56.2815 2139.58 56.2815H2068.61H2044.84V119H2066.63V78.3981L2105.49 78.3113Z" fill="white"/>
<path d="M2317.71 0.165046H2427.13V22.1165H2317.71V0.165046Z" fill="white"/>
<path d="M2317.71 48.5243H2409.97V70.6408H2339.66V97.0485H2427.13V119H2317.71V48.5243Z" fill="white"/>
<path d="M1265.18 119V0.165046H1289.11L1333.5 82L1330.5 119L1286.96 32.0194V119H1265.18Z" fill="white"/>
<path d="M1375.09 0.165046H1399.19V119H1377.24V31.8544L1337.5 119L1333.5 82L1375.09 0.165046Z" fill="white"/>
<path d="M1333.5 82L1330.5 119H1337.5L1333.5 82Z" fill="white"/>
<path d="M236.761 24.0971C236.761 23.5469 236.541 23.1068 236.1 22.7767C235.66 22.3366 235.165 22.1165 234.615 22.1165H226.5L161.668 88V95.068C161.668 95.6181 161.834 96.1133 162.164 96.5534C162.604 96.8835 163.099 97.0485 163.649 97.0485H170L236.761 29.5V24.0971Z" fill="white"/>
<path d="M502.046 24.0971C502.046 23.5469 501.826 23.1068 501.385 22.7767C500.945 22.3366 500.45 22.1165 499.9 22.1165L491.785 22.1165L426.953 88V95.068C426.953 95.6181 427.118 96.1133 427.449 96.5534C427.889 96.8835 428.384 97.0485 428.934 97.0485H435.285L502.046 29.5V24.0971Z" fill="white"/>
<path d="M1729.92 0L1793 119H1769.71L1721 26.4444L1672.14 119H1649L1712.08 0H1729.92Z" fill="white"/>
<path d="M884.734 0L950 119H925.897L875.5 26.4444L824.946 119H801L866.266 0H884.734Z" fill="white"/>
</svg>
